<mxfile host="app.diagrams.net" agent="Mozilla/5.0 (Windows NT 10.0; Win64; x64) AppleWebKit/537.36 (KHTML, like Gecko) Chrome/130.0.0.0 Safari/537.36" version="24.8.3">
  <diagram name="Page-1" id="gjC4524K1sPR2A-Yl8Ey">
    <mxGraphModel dx="2309" dy="1097" grid="1" gridSize="10" guides="1" tooltips="1" connect="1" arrows="1" fold="1" page="1" pageScale="1" pageWidth="850" pageHeight="1100" math="0" shadow="0">
      <root>
        <mxCell id="0" />
        <mxCell id="1" parent="0" />
        <mxCell id="CYvPNl93eR5mVPRAWaRI-32" value="" style="rounded=1;whiteSpace=wrap;html=1;fillColor=none;dashed=1;" vertex="1" parent="1">
          <mxGeometry x="230" y="275.63" width="480" height="264.37" as="geometry" />
        </mxCell>
        <mxCell id="CYvPNl93eR5mVPRAWaRI-10" style="edgeStyle=orthogonalEdgeStyle;rounded=0;orthogonalLoop=1;jettySize=auto;html=1;exitX=1;exitY=0.75;exitDx=0;exitDy=0;entryX=0;entryY=0.75;entryDx=0;entryDy=0;dashed=1;startArrow=classic;startFill=1;" edge="1" parent="1" source="CYvPNl93eR5mVPRAWaRI-1" target="CYvPNl93eR5mVPRAWaRI-5">
          <mxGeometry relative="1" as="geometry" />
        </mxCell>
        <mxCell id="CYvPNl93eR5mVPRAWaRI-1" value="Linux VM&lt;div&gt;(Ubuntu)&lt;/div&gt;" style="rounded=1;whiteSpace=wrap;html=1;" vertex="1" parent="1">
          <mxGeometry x="240" y="320" width="160" height="170" as="geometry" />
        </mxCell>
        <mxCell id="CYvPNl93eR5mVPRAWaRI-2" value="" style="rounded=1;whiteSpace=wrap;html=1;" vertex="1" parent="1">
          <mxGeometry x="520" y="285.63" width="170" height="80" as="geometry" />
        </mxCell>
        <mxCell id="CYvPNl93eR5mVPRAWaRI-3" value="" style="image;sketch=0;aspect=fixed;html=1;points=[];align=center;fontSize=12;image=img/lib/mscae/Docker.svg;" vertex="1" parent="1">
          <mxGeometry x="410" y="365.45" width="96.46" height="79.1" as="geometry" />
        </mxCell>
        <mxCell id="CYvPNl93eR5mVPRAWaRI-5" value="" style="rounded=1;whiteSpace=wrap;html=1;" vertex="1" parent="1">
          <mxGeometry x="520" y="435" width="170" height="80" as="geometry" />
        </mxCell>
        <mxCell id="CYvPNl93eR5mVPRAWaRI-6" value="" style="image;aspect=fixed;perimeter=ellipsePerimeter;html=1;align=center;shadow=0;dashed=0;spacingTop=3;image=img/lib/active_directory/folder_open.svg;" vertex="1" parent="1">
          <mxGeometry x="630" y="305.63" width="46" height="50" as="geometry" />
        </mxCell>
        <mxCell id="CYvPNl93eR5mVPRAWaRI-7" value="" style="image;aspect=fixed;perimeter=ellipsePerimeter;html=1;align=center;shadow=0;dashed=0;spacingTop=3;image=img/lib/active_directory/folder_open.svg;" vertex="1" parent="1">
          <mxGeometry x="630" y="455" width="46" height="50" as="geometry" />
        </mxCell>
        <mxCell id="CYvPNl93eR5mVPRAWaRI-8" value="HKMP Container" style="text;html=1;align=center;verticalAlign=middle;whiteSpace=wrap;rounded=0;" vertex="1" parent="1">
          <mxGeometry x="530" y="285.63" width="110" height="30" as="geometry" />
        </mxCell>
        <mxCell id="CYvPNl93eR5mVPRAWaRI-9" value="HKMW Container" style="text;html=1;align=center;verticalAlign=middle;whiteSpace=wrap;rounded=0;" vertex="1" parent="1">
          <mxGeometry x="530" y="445" width="110" height="30" as="geometry" />
        </mxCell>
        <mxCell id="CYvPNl93eR5mVPRAWaRI-12" style="edgeStyle=orthogonalEdgeStyle;rounded=0;orthogonalLoop=1;jettySize=auto;html=1;exitX=1;exitY=0.25;exitDx=0;exitDy=0;dashed=1;startArrow=classic;startFill=1;entryX=0;entryY=0.25;entryDx=0;entryDy=0;" edge="1" parent="1" source="CYvPNl93eR5mVPRAWaRI-1" target="CYvPNl93eR5mVPRAWaRI-2">
          <mxGeometry relative="1" as="geometry">
            <mxPoint x="410" y="458" as="sourcePoint" />
            <mxPoint x="530" y="500" as="targetPoint" />
          </mxGeometry>
        </mxCell>
        <mxCell id="CYvPNl93eR5mVPRAWaRI-25" style="edgeStyle=orthogonalEdgeStyle;rounded=0;orthogonalLoop=1;jettySize=auto;html=1;exitX=0.75;exitY=1;exitDx=0;exitDy=0;entryX=0.188;entryY=0.281;entryDx=0;entryDy=0;entryPerimeter=0;" edge="1" parent="1" source="CYvPNl93eR5mVPRAWaRI-4" target="CYvPNl93eR5mVPRAWaRI-1">
          <mxGeometry relative="1" as="geometry" />
        </mxCell>
        <mxCell id="CYvPNl93eR5mVPRAWaRI-26" style="edgeStyle=orthogonalEdgeStyle;rounded=0;orthogonalLoop=1;jettySize=auto;html=1;exitX=0.25;exitY=1;exitDx=0;exitDy=0;entryX=0.188;entryY=0.792;entryDx=0;entryDy=0;entryPerimeter=0;" edge="1" parent="1" source="CYvPNl93eR5mVPRAWaRI-4" target="CYvPNl93eR5mVPRAWaRI-1">
          <mxGeometry relative="1" as="geometry" />
        </mxCell>
        <mxCell id="CYvPNl93eR5mVPRAWaRI-27" value="HKMP Port" style="text;html=1;align=center;verticalAlign=middle;whiteSpace=wrap;rounded=0;" vertex="1" parent="1">
          <mxGeometry x="240" y="335.63" width="80" height="30" as="geometry" />
        </mxCell>
        <mxCell id="CYvPNl93eR5mVPRAWaRI-28" value="HKMW Port" style="text;html=1;align=center;verticalAlign=middle;whiteSpace=wrap;rounded=0;" vertex="1" parent="1">
          <mxGeometry x="240" y="460" width="80" height="30" as="geometry" />
        </mxCell>
        <mxCell id="CYvPNl93eR5mVPRAWaRI-29" value="" style="outlineConnect=0;dashed=0;verticalLabelPosition=bottom;verticalAlign=top;align=center;html=1;shape=mxgraph.aws3.ec2;fillColor=#F58534;gradientColor=none;" vertex="1" parent="1">
          <mxGeometry x="240" y="220" width="46.5" height="50" as="geometry" />
        </mxCell>
        <mxCell id="CYvPNl93eR5mVPRAWaRI-30" value="" style="editableCssRules=.*;html=1;shape=image;verticalLabelPosition=bottom;labelBackgroundColor=#ffffff;verticalAlign=top;aspect=fixed;imageAspect=0;image=data:image/svg+xml,PHN2ZyB4bWxucz0iaHR0cDovL3d3dy53My5vcmcvMjAwMC9zdmciIHhtbG5zOnY9Imh0dHBzOi8vdmVjdGEuaW8vbmFubyIgd2lkdGg9IjE2LjAwMDAwMTkwNzM0ODYzMyIgaGVpZ2h0PSIxNi4wMDAwMDE5MDczNDg2MzMiIHZpZXdCb3g9Ii03LjE4NzExMDA2NTA3Mzg4N2UtMTMgLTIuNDg2ODk5MTA5MjkyMjI5N2UtMTUgMTYuMDAwMDAxOTA3MzQ4NjMzIDE2LjAwMDAwMTkwNzM0ODYzMyI+JiN4YTsJPHN0eWxlIHR5cGU9InRleHQvY3NzIj4mI3hhOwkuc3Qwe2ZpbGw6IzQyODVmNDt9JiN4YTsJPC9zdHlsZT4mI3hhOwk8cGF0aCBjbGFzcz0ic3QwIiBkPSJNOS44NCA1Ljc3SDYuMTZhLjM5LjM5IDAgMCAwLS4zOS4zOXYzLjY4YS4zOS4zOSAwIDAgMCAuMzkuMzloMy42N2EuMzkuMzkgMCAwIDAgLjM5LS4zOVY2LjE2YS4zOS4zOSAwIDAgMC0uMzktLjM5bTUuODItLjI5YS4zNS4zNSAwIDAgMCAuMzUtLjM1di0uNTdhLjM1LjM1IDAgMCAwLS4zNS0uMzVoLTEuNzlWMi41NGEuMzkuMzkgMCAwIDAtLjM5LS4zOUgxMS44Vi4zNWEuMzUuMzUgMCAwIDAtLjM1LS4zNWgtLjU4YS4zNS4zNSAwIDAgMC0uMzUuMzV2MS43OUg4LjYzVi4zNUEuMzUuMzUgMCAwIDAgOC4yOSAwaC0uNThhLjM1LjM1IDAgMCAwLS4zNS4zNXYxLjc5SDUuNDhWLjM1QS4zNS4zNSAwIDAgMCA1LjEzIDBoLS41OGEuMzUuMzUgMCAwIDAtLjM1LjM1djEuNzlIMi41M2EuMzkuMzkgMCAwIDAtLjM5LjM5VjQuMkguMzVhLjM1LjM1IDAgMCAwLS4zNS4zNXYuNThhLjM1LjM1IDAgMCAwIC4zNS4zNWgxLjc5djEuODhILjM1YS4zNS4zNSAwIDAgMC0uMzUuMzV2LjU4YS4zNS4zNSAwIDAgMCAuMzUuMzVoMS43OXYxLjg5SC4zNWEuMzUuMzUgMCAwIDAtLjM1LjM1di41N2EuMzUuMzUgMCAwIDAgLjM1LjM1aDEuNzl2MS42N2EuMzkuMzkgMCAwIDAgLjM5LjM5SDQuMnYxLjc5YS4zNS4zNSAwIDAgMCAuMzUuMzVoLjU4YS4zNS4zNSAwIDAgMCAuMzUtLjM1di0xLjc5aDEuODh2MS43OWEuMzUuMzUgMCAwIDAgLjM1LjM1aC41OGEuMzUuMzUgMCAwIDAgLjM1LS4zNXYtMS43OWgxLjg5djEuNzlhLjM1LjM1IDAgMCAwIC4zNS4zNWguNTdhLjM1LjM1IDAgMCAwIC4zNS0uMzV2LTEuNzloMS42OGEuMzkuMzkgMCAwIDAgLjM5LS4zOVYxMS44aDEuNzlhLjM1LjM1IDAgMCAwIC4zNC0uMzV2LS41N2EuMzUuMzUgMCAwIDAtLjM1LS4zNWgtMS43OVY4LjY0aDEuNzlhLjM1LjM1IDAgMCAwIC4zNS0uMzV2LS41OGEuMzUuMzUgMCAwIDAtLjM1LS4zNWgtMS43OVY1LjQ4em0tMy4xMSA3LjA3SDMuNDVWMy40Nmg5LjA5eiIvPiYjeGE7PC9zdmc+;" vertex="1" parent="1">
          <mxGeometry x="295" y="220" width="50" height="50" as="geometry" />
        </mxCell>
        <mxCell id="CYvPNl93eR5mVPRAWaRI-31" value="" style="verticalLabelPosition=bottom;html=1;verticalAlign=top;align=center;strokeColor=none;fillColor=#00BEF2;shape=mxgraph.azure.virtual_machine;" vertex="1" parent="1">
          <mxGeometry x="360" y="220" width="60" height="50" as="geometry" />
        </mxCell>
        <mxCell id="CYvPNl93eR5mVPRAWaRI-38" value="AWS, GCP, Azure" style="text;html=1;align=center;verticalAlign=middle;whiteSpace=wrap;rounded=0;" vertex="1" parent="1">
          <mxGeometry x="254.11" y="275.63" width="131.77" height="30" as="geometry" />
        </mxCell>
        <mxCell id="CYvPNl93eR5mVPRAWaRI-39" value="Hollow Knight Client" style="swimlane;whiteSpace=wrap;html=1;" vertex="1" parent="1">
          <mxGeometry x="-50" y="230" width="130" height="110" as="geometry" />
        </mxCell>
        <mxCell id="CYvPNl93eR5mVPRAWaRI-40" value="Multiplayer" style="rounded=1;whiteSpace=wrap;html=1;" vertex="1" parent="CYvPNl93eR5mVPRAWaRI-39">
          <mxGeometry x="10" y="31.25" width="110" height="28.75" as="geometry" />
        </mxCell>
        <mxCell id="CYvPNl93eR5mVPRAWaRI-41" value="ItemSync" style="rounded=1;whiteSpace=wrap;html=1;" vertex="1" parent="CYvPNl93eR5mVPRAWaRI-39">
          <mxGeometry x="10" y="70" width="110" height="28.75" as="geometry" />
        </mxCell>
        <mxCell id="CYvPNl93eR5mVPRAWaRI-4" value="&lt;p style=&quot;line-height: 120%; font-size: 13px;&quot;&gt;&lt;font style=&quot;font-size: 13px;&quot;&gt;Network Policy&lt;/font&gt;&lt;/p&gt;" style="shape=trapezoid;perimeter=trapezoidPerimeter;whiteSpace=wrap;html=1;fixedSize=1;rotation=-90;" vertex="1" parent="1">
          <mxGeometry x="110.82" y="393.31" width="175" height="35.88" as="geometry" />
        </mxCell>
        <mxCell id="CYvPNl93eR5mVPRAWaRI-46" value="Hollow Knight Client" style="swimlane;whiteSpace=wrap;html=1;" vertex="1" parent="1">
          <mxGeometry x="-50" y="350" width="130" height="110" as="geometry" />
        </mxCell>
        <mxCell id="CYvPNl93eR5mVPRAWaRI-47" value="Multiplayer" style="rounded=1;whiteSpace=wrap;html=1;" vertex="1" parent="CYvPNl93eR5mVPRAWaRI-46">
          <mxGeometry x="10" y="31.25" width="110" height="28.75" as="geometry" />
        </mxCell>
        <mxCell id="CYvPNl93eR5mVPRAWaRI-48" value="ItemSync" style="rounded=1;whiteSpace=wrap;html=1;" vertex="1" parent="CYvPNl93eR5mVPRAWaRI-46">
          <mxGeometry x="10" y="70" width="110" height="28.75" as="geometry" />
        </mxCell>
        <mxCell id="CYvPNl93eR5mVPRAWaRI-56" value="Hollow Knight Client" style="swimlane;whiteSpace=wrap;html=1;" vertex="1" parent="1">
          <mxGeometry x="-50" y="470" width="130" height="110" as="geometry" />
        </mxCell>
        <mxCell id="CYvPNl93eR5mVPRAWaRI-57" value="Multiplayer" style="rounded=1;whiteSpace=wrap;html=1;" vertex="1" parent="CYvPNl93eR5mVPRAWaRI-56">
          <mxGeometry x="10" y="31.25" width="110" height="28.75" as="geometry" />
        </mxCell>
        <mxCell id="CYvPNl93eR5mVPRAWaRI-58" value="ItemSync" style="rounded=1;whiteSpace=wrap;html=1;" vertex="1" parent="CYvPNl93eR5mVPRAWaRI-56">
          <mxGeometry x="10" y="70" width="110" height="28.75" as="geometry" />
        </mxCell>
        <mxCell id="CYvPNl93eR5mVPRAWaRI-61" value="" style="curved=1;endArrow=classic;html=1;rounded=0;exitX=1;exitY=0.5;exitDx=0;exitDy=0;entryX=0.75;entryY=0;entryDx=0;entryDy=0;" edge="1" parent="1" source="CYvPNl93eR5mVPRAWaRI-57" target="CYvPNl93eR5mVPRAWaRI-4">
          <mxGeometry width="50" height="50" relative="1" as="geometry">
            <mxPoint x="150" y="430" as="sourcePoint" />
            <mxPoint x="200" y="380" as="targetPoint" />
            <Array as="points">
              <mxPoint x="170" y="510" />
              <mxPoint x="150" y="380" />
            </Array>
          </mxGeometry>
        </mxCell>
        <mxCell id="CYvPNl93eR5mVPRAWaRI-62" value="" style="curved=1;endArrow=classic;html=1;rounded=0;exitX=1;exitY=0.5;exitDx=0;exitDy=0;entryX=0.75;entryY=0;entryDx=0;entryDy=0;" edge="1" parent="1" source="CYvPNl93eR5mVPRAWaRI-40" target="CYvPNl93eR5mVPRAWaRI-4">
          <mxGeometry width="50" height="50" relative="1" as="geometry">
            <mxPoint x="130" y="320" as="sourcePoint" />
            <mxPoint x="180" y="270" as="targetPoint" />
            <Array as="points">
              <mxPoint x="140" y="280" />
              <mxPoint x="150" y="360" />
            </Array>
          </mxGeometry>
        </mxCell>
        <mxCell id="CYvPNl93eR5mVPRAWaRI-63" value="" style="curved=1;endArrow=classic;html=1;rounded=0;exitX=1;exitY=0.5;exitDx=0;exitDy=0;entryX=0.75;entryY=0;entryDx=0;entryDy=0;" edge="1" parent="1" source="CYvPNl93eR5mVPRAWaRI-47" target="CYvPNl93eR5mVPRAWaRI-4">
          <mxGeometry width="50" height="50" relative="1" as="geometry">
            <mxPoint x="120" y="526" as="sourcePoint" />
            <mxPoint x="190" y="378" as="targetPoint" />
            <Array as="points">
              <mxPoint x="140" y="420" />
              <mxPoint x="150" y="368" />
            </Array>
          </mxGeometry>
        </mxCell>
        <mxCell id="CYvPNl93eR5mVPRAWaRI-64" value="" style="curved=1;endArrow=classic;html=1;rounded=0;exitX=1;exitY=0.5;exitDx=0;exitDy=0;entryX=0.25;entryY=0;entryDx=0;entryDy=0;" edge="1" parent="1" source="CYvPNl93eR5mVPRAWaRI-48" target="CYvPNl93eR5mVPRAWaRI-4">
          <mxGeometry width="50" height="50" relative="1" as="geometry">
            <mxPoint x="110.82" y="436" as="sourcePoint" />
            <mxPoint x="180.82" y="408" as="targetPoint" />
            <Array as="points">
              <mxPoint x="110" y="430" />
              <mxPoint x="150" y="470" />
            </Array>
          </mxGeometry>
        </mxCell>
        <mxCell id="CYvPNl93eR5mVPRAWaRI-65" value="" style="curved=1;endArrow=classic;html=1;rounded=0;exitX=1;exitY=0.5;exitDx=0;exitDy=0;entryX=0.25;entryY=0;entryDx=0;entryDy=0;" edge="1" parent="1" source="CYvPNl93eR5mVPRAWaRI-58" target="CYvPNl93eR5mVPRAWaRI-4">
          <mxGeometry width="50" height="50" relative="1" as="geometry">
            <mxPoint x="120.82" y="446" as="sourcePoint" />
            <mxPoint x="190" y="465" as="targetPoint" />
            <Array as="points">
              <mxPoint x="150" y="550" />
              <mxPoint x="140" y="460" />
            </Array>
          </mxGeometry>
        </mxCell>
        <mxCell id="CYvPNl93eR5mVPRAWaRI-66" value="" style="curved=1;endArrow=classic;html=1;rounded=0;exitX=1;exitY=0.5;exitDx=0;exitDy=0;entryX=0.25;entryY=0;entryDx=0;entryDy=0;" edge="1" parent="1" source="CYvPNl93eR5mVPRAWaRI-41" target="CYvPNl93eR5mVPRAWaRI-4">
          <mxGeometry width="50" height="50" relative="1" as="geometry">
            <mxPoint x="160" y="589" as="sourcePoint" />
            <mxPoint x="230" y="490" as="targetPoint" />
            <Array as="points">
              <mxPoint x="150" y="320" />
              <mxPoint x="130" y="450" />
            </Array>
          </mxGeometry>
        </mxCell>
        <mxCell id="CYvPNl93eR5mVPRAWaRI-68" value="" style="endArrow=none;dashed=1;html=1;dashPattern=1 3;strokeWidth=2;rounded=0;" edge="1" parent="1">
          <mxGeometry width="50" height="50" relative="1" as="geometry">
            <mxPoint x="120" y="580" as="sourcePoint" />
            <mxPoint x="120" y="230" as="targetPoint" />
          </mxGeometry>
        </mxCell>
        <mxCell id="CYvPNl93eR5mVPRAWaRI-69" value="Internet" style="text;html=1;align=center;verticalAlign=middle;whiteSpace=wrap;rounded=0;rotation=-90;" vertex="1" parent="1">
          <mxGeometry x="100" y="240" width="60" height="30" as="geometry" />
        </mxCell>
      </root>
    </mxGraphModel>
  </diagram>
</mxfile>
